<?xml version="1.0" encoding="UTF-8"?>
<svg id="Layer_1" data-name="Layer 1" xmlns="http://www.w3.org/2000/svg" version="1.1" xmlns:xlink="http://www.w3.org/1999/xlink" viewBox="0 0 1200 1200">
  <defs>
    <style>
      .cls-1, .cls-2 {
        fill: #03497d;
      }

      .cls-3 {
        fill: #000;
      }

      .cls-3, .cls-4, .cls-2, .cls-5, .cls-6 {
        stroke-width: 0px;
      }

      .cls-4 {
        fill: #00c0f3;
      }

      .cls-5 {
        fill: #00d4ff;
      }

      .cls-7 {
        clip-path: url(#clippath);
      }

      .cls-6 {
        fill: #519131;
      }
    </style>
    <clipPath id="clippath">
      <path class="cls-2" d="M845.18,589.32c1.91,16.62-1.37,26.2-8.17,43.6-4.72,12.07.78,21.36,9.6,19.99,4.56-.71,7.24-4,7.21-8.62-.02-4.62-4.65-7.4-7.28-4.74,0,0,1.48-10.24,12.65-9.14,11.15,1.09,15.27,17.4,10.38,27.33-4.89,9.92-14.01,16.9-28.87,14.26-14.86-2.63-22.19-17.65-19.48-31.81,3.36-17.58,17.93-23.85,23.97-50.86Z"/>
    </clipPath>
  </defs>
  <path class="cls-6" d="M377.69,709.44c-41.9-2.68-77.25-27-95.89-61.36,10.22,41.23,46.14,72.93,90.78,75.79,35.49,2.27,67.83-14.25,87.33-41-22.24,18.31-51.2,28.56-82.22,26.57Z"/>
  <g>
    <path class="cls-3" d="M534.38,711.65h-4.46v9.4h-2.33v-23.23h6.41c6.38,0,8.96,2.17,8.96,7.04,0,4.4-2.26,6.79-8.58,6.79ZM533.21,699.92h-3.3v9.62h4.31c4.62,0,6.38-1.32,6.38-4.68,0-4.71-2.96-4.93-7.39-4.93Z"/>
    <path class="cls-3" d="M561.37,712.37l6.51,8.68h-2.89l-7.83-10.53c6.51,0,8.71-1.13,8.71-5.31,0-3.87-2.39-5.28-7.8-5.28h-3.27v21.12h-2.33v-23.23h5.75c7.29,0,10,2.64,10,7.48,0,4.12-2.39,6.6-6.85,7.07Z"/>
    <path class="cls-3" d="M589.12,721.45c-6.82,0-12.29-5.41-12.29-12.16s5.63-11.88,12.29-11.88,12.26,5.41,12.26,12.04-5.53,12.01-12.26,12.01ZM589.12,699.54c-5.38,0-9.93,4.5-9.93,9.81s4.46,9.96,9.93,9.96,9.9-4.46,9.9-9.84-4.5-9.93-9.9-9.93Z"/>
    <path class="cls-3" d="M615.61,721.48c-3.71,0-6.04-2.23-6.22-5.94h2.29c.16,2.36,1.67,3.8,3.96,3.8,2.51,0,3.83-1.89,3.83-5.56v-15.97h2.33v15.97c0,5.15-2.23,7.7-6.19,7.7Z"/>
    <path class="cls-3" d="M632.86,721.04v-23.23h12.7v2.11h-10.37v8.33h10.03v2.11h-10.03v8.58h10.37v2.11h-12.7Z"/>
    <path class="cls-3" d="M667.18,721.45c-6.95,0-12.2-5.15-12.2-11.94s5.12-12.1,12.04-12.1c4.81,0,8.9,2.45,10.69,6.44h-2.61c-1.98-3.11-4.71-4.31-7.98-4.31-5.53,0-9.78,4.27-9.78,9.87s4.43,9.9,9.81,9.9c3.39,0,5.63-1.29,8.08-4.37h2.58c-2.33,4.31-5.91,6.51-10.62,6.51Z"/>
    <path class="cls-3" d="M693.3,699.92v21.12h-2.33v-21.12h-5.31v-2.11h12.95v2.11h-5.31Z"/>
    <path class="cls-3" d="M722.49,721.04v-23.23h2.33v21.12h9.62v2.11h-11.94Z"/>
    <path class="cls-3" d="M743.3,721.04v-23.23h2.33v21.12h9.62v2.11h-11.94Z"/>
    <path class="cls-3" d="M770.89,711.65h-4.46v9.4h-2.33v-23.23h6.41c6.38,0,8.96,2.17,8.96,7.04,0,4.4-2.26,6.79-8.58,6.79ZM769.73,699.92h-3.3v9.62h4.31c4.62,0,6.38-1.32,6.38-4.68,0-4.71-2.96-4.93-7.39-4.93Z"/>
  </g>
  <path class="cls-2" d="M562.3,662.03v9.85h-35.11v-47.99h34.29v9.85h-23.69v8.19h20.66v8.81h-20.66v11.29h24.51Z"/>
  <path class="cls-2" d="M577.03,647.91c0,2.53.38,4.7,1.14,6.54.76,1.84,1.74,3.36,2.96,4.58,1.22,1.22,2.62,2.12,4.2,2.72,1.58.6,3.2.9,4.85.9,1.28,0,2.55-.17,3.79-.52,1.24-.34,2.41-.86,3.51-1.55,1.1-.69,2.09-1.54,2.96-2.55.87-1.01,1.58-2.18,2.13-3.51h10.53c-.55,3.03-1.56,5.68-3.03,7.95-1.47,2.27-3.22,4.17-5.27,5.68-2.04,1.51-4.3,2.65-6.78,3.41s-5,1.14-7.57,1.14c-3.03,0-6-.52-8.92-1.55-2.92-1.03-5.53-2.58-7.85-4.65-2.32-2.07-4.18-4.65-5.58-7.75-1.4-3.1-2.1-6.71-2.1-10.84s.7-7.73,2.1-10.81c1.4-3.07,3.26-5.65,5.58-7.71,2.32-2.07,4.93-3.61,7.85-4.65,2.91-1.03,5.89-1.55,8.92-1.55,2.57,0,5.1.38,7.57,1.14,2.48.76,4.74,1.89,6.78,3.41,2.04,1.52,3.8,3.41,5.27,5.68,1.47,2.27,2.48,4.92,3.03,7.95h-10.53c-.55-1.33-1.26-2.5-2.13-3.51-.87-1.01-1.86-1.86-2.96-2.55s-2.28-1.21-3.55-1.55c-1.26-.34-2.54-.52-3.82-.52-1.65,0-3.26.3-4.82.9-1.56.6-2.95,1.49-4.17,2.69-1.22,1.19-2.2,2.72-2.96,4.58-.76,1.86-1.14,4.03-1.14,6.51Z"/>
  <path class="cls-2" d="M739.67,624.51l-24.51,48.68h-3.86l-24.58-48.68h11.91l14.6,29.54,14.53-29.54h11.91Z"/>
  <path class="cls-2" d="M743.94,672.43v-47.99h10.6v47.99h-10.6Z"/>
  <path class="cls-2" d="M772.51,638.08c0,1.47.62,2.56,1.86,3.27s2.8,1.31,4.68,1.79c1.88.48,3.9.98,6.06,1.48,2.16.51,4.18,1.27,6.06,2.31,1.88,1.03,3.44,2.46,4.68,4.27,1.24,1.81,1.86,4.26,1.86,7.33,0,2.25-.46,4.28-1.38,6.09-.92,1.81-2.18,3.36-3.79,4.65-1.61,1.29-3.5,2.27-5.68,2.96-2.18.69-4.53,1.03-7.06,1.03-2.3,0-4.54-.33-6.75-1s-4.18-1.66-5.92-3c-1.75-1.33-3.18-3.02-4.3-5.06-1.13-2.04-1.76-4.46-1.89-7.26h10.33c.05,1.15.33,2.15.86,3,.53.85,1.2,1.55,2.03,2.1.83.55,1.76.96,2.79,1.24,1.03.28,2.08.41,3.13.41.96,0,1.88-.1,2.75-.31s1.65-.52,2.34-.93c.69-.41,1.24-.93,1.65-1.55.41-.62.62-1.34.62-2.17,0-1.47-.63-2.57-1.89-3.3-1.26-.73-2.83-1.35-4.72-1.86-1.88-.5-3.94-1.02-6.16-1.55-2.23-.53-4.28-1.33-6.16-2.41-1.88-1.08-3.45-2.55-4.72-4.41-1.26-1.86-1.89-4.37-1.89-7.54,0-2.25.48-4.24,1.45-5.99.96-1.74,2.24-3.2,3.82-4.37s3.4-2.05,5.44-2.65c2.04-.6,4.14-.89,6.3-.89s4.37.32,6.51.96c2.13.64,4.05,1.64,5.75,3,1.7,1.35,3.09,3.04,4.17,5.06s1.64,4.41,1.69,7.16h-10.33c-.05-1.15-.3-2.12-.76-2.93-.46-.8-1.05-1.47-1.76-2-.71-.53-1.5-.92-2.38-1.17-.87-.25-1.77-.38-2.69-.38-.83,0-1.64.1-2.44.31-.8.21-1.52.51-2.14.89-.62.39-1.11.87-1.48,1.45-.37.57-.55,1.23-.55,1.96Z"/>
  <path class="cls-2" d="M804.32,672.43v-47.99h10.6v47.99h-10.6Z"/>
  <path class="cls-2" d="M918.2,624.51v48.68h-3.86l-26.92-27.68v26.92h-10.6v-48.75h3.86l26.92,27.75v-26.92h10.6Z"/>
  <g>
    <path class="cls-5" d="M850.13,603.89s.75,6.38-1.36,12.24c-2.18,6.06.48,10.71,5.21,10.03,5.4-.79,7.42-9.01-3.85-22.28Z"/>
    <g>
      <path class="cls-1" d="M845.18,589.32c1.91,16.62-1.37,26.2-8.17,43.6-4.72,12.07.78,21.36,9.6,19.99,4.56-.71,7.24-4,7.21-8.62-.02-4.62-4.65-7.4-7.28-4.74,0,0,1.48-10.24,12.65-9.14,11.15,1.09,15.27,17.4,10.38,27.33-4.89,9.92-14.01,16.9-28.87,14.26-14.86-2.63-22.19-17.65-19.48-31.81,3.36-17.58,17.93-23.85,23.97-50.86Z"/>
      <g class="cls-7">
        <path class="cls-4" d="M845.18,589.32s.65,12.84-6.16,24.69c-6.8,11.84-14.23,24.56-10.2,36.91,4.03,12.34,17.51,15.24,26.83,8.69,14.71-10.33,1.26-32.81-9.12-20.06,0,0,4.92,6.96.22,8.81-4.7,1.85-12.43-6.04-5.88-17.8,6.55-11.76,6.27-35.09,4.31-41.23Z"/>
      </g>
    </g>
    <path class="cls-2" d="M850.13,603.89s4.07,7.15,4.07,14.96c0,7.31-7.8,5.36-5.78-1.51,2.02-6.87,2.04-10.22,1.71-13.45Z"/>
  </g>
  <path class="cls-6" d="M666.61,638.24c-1.21-3-2.91-5.62-5.09-7.85-2.18-2.22-4.78-3.99-7.82-5.3-.42-.18-.84-.35-1.28-.51-1.39-.51-2.85-.88-4.37-1.11-1.41-.24-2.87-.35-4.4-.35-3.62,0-6.95.66-9.98,1.97-3.03,1.3-5.63,3.08-7.82,5.3-2.18,2.23-3.87,4.85-5.09,7.85-1.22,3-1.82,6.23-1.82,9.68s.6,6.6,1.82,9.6c1.22,3,2.91,5.62,5.09,7.84,2.18,2.23,4.79,3.99,7.82,5.31,1.87.81,3.86,1.36,5.96,1.67,1.29.19,2.63.29,4.02.29,1.23,0,2.43-.07,3.57-.23,2.3-.28,4.46-.86,6.48-1.73,3.04-1.32,5.63-3.08,7.82-5.31,2.18-2.22,3.89-4.84,5.09-7.84,1.22-3,1.83-6.21,1.83-9.6s-.62-6.67-1.83-9.68ZM643.69,661.83h0c-7.95,0-12.87-8.66-8.79-15.49l8.66-14.51,8.85,14.39c4.2,6.82-.71,15.61-8.72,15.61Z"/>
  <g>
    <path class="cls-4" d="M446.97,649.67l-2.56,12.71c7,7.55,21.9,11.68,35.92,2.73,7.92-5.35,11.31-13.56,11.61-23.77.37-12.76-15.04-31.52-15.04-31.52-.01,5.28-1.79,12.9-9.95,21.55-7.44,7.9-5.69,18.34,3.5,17.67,2.07-.15,3.32-1.04,4.35-2.21-1.59,8.68-21.35,12.92-27.84,2.83Z"/>
    <path class="cls-2" d="M463.75,580.11c5.16,8.54,13.88,27.3-1.31,44-16.77,18.43-19.51,34.38-9.74,43.96-17.4-6.84-24.69-30.22-7.56-51.96,14.8-18.78,17.96-26.9,18.61-35.99Z"/>
  </g>
  <path class="cls-4" d="M390.87,687.05c-42.33,0-76.64-34.31-76.64-76.64,0-22.53,9.72-42.79,25.2-56.81,6.1-5.68,13.16-10.33,20.89-13.67-32.96,7.24-58.55,35.55-60.81,70.91-2.74,42.81,29.74,79.73,72.55,82.48,16.25,1.04,31.66-3,44.67-10.75-8.08,2.9-16.78,4.48-25.85,4.48Z"/>
  <path class="cls-2" d="M415.34,651.52c-3.96-14.6,1.71-28.05,12.54-41.79,13.43-17.02,30.65-37.61,23.68-51.54l-2.13-4.69-12.83-24.21-61.7,104.14h-28.7l77.19-129.03h0s16.17-29.77,16.17-29.77l-25.58,12.7h0s-21.48,10.65-21.48,10.65v.02s-28.71,14.24-28.71,14.24h19.88l-37.99,61.28c-26.22,44.19-1.31,96.13,50.06,96.13h33.38c-5.43-1.41-12.29-12.52-13.79-18.12Z"/>
  <polygon class="cls-4" points="441.8 482.98 451.06 512.23 426.48 512.23 441.8 482.98"/>
  <g>
    <path class="cls-2" d="M636.53,564.2c-1.97-2.61-4.46-4.72-7.44-6.32-2.99-1.6-6.46-2.4-10.4-2.4h-26.33v55.7h26.33c3.95,0,7.42-.8,10.4-2.4,2.99-1.6,5.47-3.71,7.44-6.32,1.97-2.61,3.45-5.59,4.44-8.92.99-3.33,1.48-6.74,1.48-10.2s-.49-6.87-1.48-10.2c-.99-3.33-2.47-6.31-4.44-8.92ZM627.97,591.45c-1.01,2.48-2.54,4.56-4.56,6.24-2.03,1.68-4.56,2.52-7.6,2.52h-11.12v-33.77h11.12c3.04,0,5.57.84,7.6,2.52,2.03,1.68,3.55,3.76,4.56,6.24,1.01,2.48,1.52,5.19,1.52,8.12s-.51,5.64-1.52,8.12Z"/>
    <rect class="cls-2" x="649.9" y="555.4" width="12.32" height="55.78"/>
    <polygon class="cls-2" points="667.82 566.44 682.47 566.44 682.47 611.18 694.79 611.18 694.79 566.44 709.36 566.44 709.36 555.48 667.82 555.48 667.82 566.44"/>
    <rect class="cls-2" x="715.04" y="555.4" width="12.32" height="55.78"/>
    <polygon class="cls-2" points="555.67 555.44 527.56 611.18 541.02 611.18 557.87 577.4 564.75 591.21 557.68 591.21 552.08 602.18 570.22 602.18 574.7 611.18 588.1 611.18 560.08 555.44 555.67 555.44"/>
  </g>
</svg>